<svg width="20" height="20" viewBox="0 0 20 20" fill="none" xmlns="http://www.w3.org/2000/svg">
<path d="M15.6402 7.03778L11.8902 3.28778C11.815 3.21241 11.7128 3.17002 11.6063 3.16992H5.17773C4.92909 3.16992 4.69064 3.26869 4.51482 3.44451C4.33901 3.62032 4.24023 3.85878 4.24023 4.10742V15.8931C4.24023 16.1418 4.33901 16.3802 4.51482 16.556C4.69064 16.7319 4.92909 16.8306 5.17773 16.8306H14.8206C15.0692 16.8306 15.3077 16.7319 15.4835 16.556C15.6593 16.3802 15.7581 16.1418 15.7581 15.8931V7.32171C15.758 7.21518 15.7156 7.11306 15.6402 7.03778ZM12.0081 4.54135L14.3867 6.91992H12.0081V4.54135ZM14.8206 16.0271H5.17773C5.14221 16.0271 5.10815 16.013 5.08303 15.9878C5.05792 15.9627 5.04381 15.9287 5.04381 15.8931V4.10742C5.04381 4.0719 5.05792 4.03784 5.08303 4.01272C5.10815 3.9876 5.14221 3.97349 5.17773 3.97349H11.2045V7.32171C11.2045 7.42827 11.2469 7.53046 11.3222 7.60581C11.3975 7.68116 11.4997 7.72349 11.6063 7.72349H14.9545V15.8931C14.9545 15.9287 14.9404 15.9627 14.9153 15.9878C14.8902 16.013 14.8561 16.0271 14.8206 16.0271ZM11.8902 11.8592C11.9655 11.9345 12.0077 12.0367 12.0077 12.1431C12.0077 12.2496 11.9655 12.3517 11.8902 12.4271L10.2831 14.0342C10.2078 14.1094 10.1056 14.1517 9.99916 14.1517C9.89269 14.1517 9.79057 14.1094 9.71523 14.0342L8.10809 12.4271C8.03712 12.3509 7.99848 12.2502 8.00032 12.1461C8.00216 12.042 8.04432 11.9427 8.11794 11.8691C8.19155 11.7954 8.29086 11.7533 8.39495 11.7514C8.49904 11.7496 8.59978 11.7882 8.67595 11.8592L9.59738 12.78V9.46456C9.59738 9.358 9.63971 9.25581 9.71506 9.18046C9.79041 9.10511 9.8926 9.06278 9.99916 9.06278C10.1057 9.06278 10.2079 9.10511 10.2833 9.18046C10.3586 9.25581 10.4009 9.358 10.4009 9.46456V12.78L11.3224 11.8592C11.3977 11.784 11.4998 11.7417 11.6063 11.7417C11.7128 11.7417 11.8149 11.784 11.8902 11.8592Z" fill="#005DAB" style="fill:#005DAB;fill:color(display-p3 0.0000 0.3647 0.6706);fill-opacity:1;"/>
</svg>
