<svg width="20" height="21" viewBox="0 0 20 21" fill="none" xmlns="http://www.w3.org/2000/svg">
<path d="M16.1616 11.9727V15.7227C16.1616 15.9714 16.0628 16.2098 15.887 16.3856C15.7111 16.5614 15.4727 16.6602 15.2241 16.6602H4.50977C4.26113 16.6602 4.02267 16.5614 3.84685 16.3856C3.67104 16.2098 3.57227 15.9714 3.57227 15.7227V11.9727C3.57227 11.8662 3.6146 11.764 3.68995 11.6886C3.7653 11.6133 3.86749 11.5709 3.97405 11.5709C4.08061 11.5709 4.18281 11.6133 4.25816 11.6886C4.33351 11.764 4.37584 11.8662 4.37584 11.9727V15.7227C4.37584 15.7582 4.38995 15.7923 4.41506 15.8174C4.44018 15.8425 4.47425 15.8566 4.50977 15.8566H15.2241C15.2596 15.8566 15.2936 15.8425 15.3188 15.8174C15.3439 15.7923 15.358 15.7582 15.358 15.7227V11.9727C15.358 11.8662 15.4003 11.764 15.4757 11.6886C15.551 11.6133 15.6532 11.5709 15.7598 11.5709C15.8663 11.5709 15.9685 11.6133 16.0439 11.6886C16.1192 11.764 16.1616 11.8662 16.1616 11.9727ZM7.47227 7.43522L9.46512 5.44303V11.9727C9.46512 12.0793 9.50745 12.1815 9.5828 12.2568C9.65815 12.3322 9.76035 12.3745 9.86691 12.3745C9.97347 12.3745 10.0757 12.3322 10.151 12.2568C10.2264 12.1815 10.2687 12.0793 10.2687 11.9727V5.44303L12.2616 7.43522C12.3377 7.50619 12.4385 7.54483 12.5425 7.54299C12.6466 7.54116 12.7459 7.49899 12.8196 7.42538C12.8932 7.35176 12.9353 7.25245 12.9372 7.14836C12.939 7.04427 12.9004 6.94353 12.8294 6.86736L10.1508 4.18879C10.0755 4.11355 9.97338 4.07129 9.86691 4.07129C9.76044 4.07129 9.65832 4.11355 9.58298 4.18879L6.90441 6.86736C6.83344 6.94353 6.7948 7.04427 6.79664 7.14836C6.79847 7.25245 6.84064 7.35176 6.91425 7.42538C6.98787 7.49899 7.08718 7.54116 7.19127 7.54299C7.29536 7.54483 7.3961 7.50619 7.47227 7.43522Z" fill="#797979" style="fill:#797979;fill:color(display-p3 0.4745 0.4745 0.4745);fill-opacity:1;"/>
</svg>
